<?xml version="1.0" encoding="UTF-8" standalone="no"?>
<!DOCTYPE svg PUBLIC "-//W3C//DTD SVG 1.1//EN"
 "http://www.w3.org/Graphics/SVG/1.1/DTD/svg11.dtd">
<!-- Generated by graphviz version 2.38.0 (20140413.2041)
 -->
<!-- Title: G Pages: 1 -->
<svg width="269pt" height="211pt"
 viewBox="0.00 0.00 268.53 211.00" xmlns="http://www.w3.org/2000/svg" xmlns:xlink="http://www.w3.org/1999/xlink">
<g id="graph0" class="graph" transform="scale(1 1) rotate(0) translate(4 207)">
<title>G</title>
<polygon fill="white" stroke="none" points="-4,4 -4,-207 264.526,-207 264.526,4 -4,4"/>
<g id="clust1" class="cluster"><title>cluster_Global</title>
<path fill="none" stroke="gray" d="M141.116,-8C141.116,-8 240.526,-8 240.526,-8 246.526,-8 252.526,-14 252.526,-20 252.526,-20 252.526,-183 252.526,-183 252.526,-189 246.526,-195 240.526,-195 240.526,-195 141.116,-195 141.116,-195 135.116,-195 129.116,-189 129.116,-183 129.116,-183 129.116,-20 129.116,-20 129.116,-14 135.116,-8 141.116,-8"/>
<text text-anchor="middle" x="190.821" y="-182.2" font-family="Times,serif" font-size="11.00" fill="gray">Global</text>
</g>
<g id="clust2" class="cluster"><title>cluster_\Monk</title>
<path fill="none" stroke="gray" d="M149.116,-16C149.116,-16 232.526,-16 232.526,-16 238.526,-16 244.526,-22 244.526,-28 244.526,-28 244.526,-156 244.526,-156 244.526,-162 238.526,-168 232.526,-168 232.526,-168 149.116,-168 149.116,-168 143.116,-168 137.116,-162 137.116,-156 137.116,-156 137.116,-28 137.116,-28 137.116,-22 143.116,-16 149.116,-16"/>
<text text-anchor="middle" x="190.821" y="-155.2" font-family="Times,serif" font-size="11.00" fill="gray">Monk</text>
</g>
<g id="clust3" class="cluster"><title>cluster_\Monk\Cms</title>
<path fill="none" stroke="gray" d="M157.116,-70C157.116,-70 224.526,-70 224.526,-70 230.526,-70 236.526,-76 236.526,-82 236.526,-82 236.526,-129 236.526,-129 236.526,-135 230.526,-141 224.526,-141 224.526,-141 157.116,-141 157.116,-141 151.116,-141 145.116,-135 145.116,-129 145.116,-129 145.116,-82 145.116,-82 145.116,-76 151.116,-70 157.116,-70"/>
<text text-anchor="middle" x="190.821" y="-128.2" font-family="Times,serif" font-size="11.00" fill="gray">Cms</text>
</g>
<!-- \\Monk\\Cms\\Exception -->
<g id="node1" class="node"><title>\\Monk\\Cms\\Exception</title>
<polygon fill="none" stroke="black" points="228.732,-114 152.91,-114 152.91,-78 228.732,-78 228.732,-114"/>
<text text-anchor="middle" x="190.821" y="-92.7" font-family="Courier,monospace" font-size="11.00">Exception</text>
</g>
<!-- \\Exception -->
<g id="node3" class="node"><title>\\Exception</title>
<ellipse fill="none" stroke="black" cx="40.5581" cy="-96" rx="40.6162" ry="18"/>
<text text-anchor="middle" x="40.5581" y="-91.8" font-family="Times,serif" font-size="14.00" fill="gray">xception</text>
</g>
<!-- \\Monk\\Cms\\Exception&#45;&gt;\\Exception -->
<g id="edge1" class="edge"><title>\\Monk\\Cms\\Exception&#45;&gt;\\Exception</title>
<path fill="none" stroke="black" d="M152.79,-96C134.239,-96 111.51,-96 91.4444,-96"/>
<polygon fill="none" stroke="black" points="91.2304,-92.5001 81.2304,-96 91.2304,-99.5001 91.2304,-92.5001"/>
</g>
<!-- \\Monk\\Cms -->
<g id="node2" class="node"><title>\\Monk\\Cms</title>
<polygon fill="none" stroke="black" points="217.821,-60 163.821,-60 163.821,-24 217.821,-24 217.821,-60"/>
<text text-anchor="middle" x="190.821" y="-38.7" font-family="Courier,monospace" font-size="11.00">Cms</text>
</g>
</g>
</svg>
