<?xml version="1.0" encoding="UTF-8" standalone="no"?>
<!DOCTYPE svg PUBLIC "-//W3C//DTD SVG 1.1//EN"
 "http://www.w3.org/Graphics/SVG/1.1/DTD/svg11.dtd">
<!-- Generated by graphviz version 2.38.0 (20140413.2041)
 -->
<!-- Title: G Pages: 1 -->
<svg width="110pt" height="130pt"
 viewBox="0.00 0.00 110.00 130.00" xmlns="http://www.w3.org/2000/svg" xmlns:xlink="http://www.w3.org/1999/xlink">
<g id="graph0" class="graph" transform="scale(1 1) rotate(0) translate(4 126)">
<title>G</title>
<polygon fill="white" stroke="none" points="-4,4 -4,-126 106,-126 106,4 -4,4"/>
<g id="clust1" class="cluster"><title>cluster_Global</title>
<path fill="none" stroke="gray" d="M20,-8C20,-8 82,-8 82,-8 88,-8 94,-14 94,-20 94,-20 94,-102 94,-102 94,-108 88,-114 82,-114 82,-114 20,-114 20,-114 14,-114 8,-108 8,-102 8,-102 8,-20 8,-20 8,-14 14,-8 20,-8"/>
<text text-anchor="middle" x="51" y="-101.2" font-family="Times,serif" font-size="11.00" fill="gray">Global</text>
</g>
<g id="clust2" class="cluster"><title>cluster_\Monk</title>
<path fill="none" stroke="gray" d="M28,-16C28,-16 74,-16 74,-16 80,-16 86,-22 86,-28 86,-28 86,-75 86,-75 86,-81 80,-87 74,-87 74,-87 28,-87 28,-87 22,-87 16,-81 16,-75 16,-75 16,-28 16,-28 16,-22 22,-16 28,-16"/>
<text text-anchor="middle" x="51" y="-74.2" font-family="Times,serif" font-size="11.00" fill="gray">Monk</text>
</g>
<!-- \\Monk\\Cms -->
<g id="node1" class="node"><title>\\Monk\\Cms</title>
<polygon fill="none" stroke="black" points="78,-60 24,-60 24,-24 78,-24 78,-60"/>
<text text-anchor="middle" x="51" y="-38.7" font-family="Courier,monospace" font-size="11.00">Cms</text>
</g>
</g>
</svg>
